# xmcd CD database file
#
# Track frame offsets:
#	150
#	8750
#	21550
#	33912
#	48275
#	58050
#	76425
#	90675
#	103100
#	117412
#	129175
#	144375
#	157350
#	175400
#	188150
#
# Disc length: 2658 seconds
#
# Revision: 1
# Processed by: cddbd v1.5.1PL0 Copyright (c) Steve Scherf et al.
# Submitted via: CDex 1.51
#
DISCID=cb0a600f
DTITLE=Annette Berr - Haus mit 13 Zimmern
DYEAR=1993
DGENRE=Blues
TTITLE0=Rosen
TTITLE1=Schatten
TTITLE2=Zeit
TTITLE3=Schläfst Du
TTITLE4=Herbst
TTITLE5=Genug kann nie genügen
TTITLE6=Mit beiden Händen
TTITLE7=Kerle
TTITLE8=Längst nicht alle Tage
TTITLE9=Müdigkeit
TTITLE10=Kann die Welt nicht ändern
TTITLE11=Ich geb`s ja zu
TTITLE12=Von irgendwo her
TTITLE13=Stadtlied
TTITLE14=Roter Samt
EXTD=Deutsch YEAR: 1993
EXTT0=
EXTT1=
EXTT2=
EXTT3=
EXTT4=
EXTT5=
EXTT6=
EXTT7=
EXTT8=
EXTT9=
EXTT10=
EXTT11=
EXTT12=
EXTT13=
EXTT14=
PLAYORDER=
